<svg xmlns="http://www.w3.org/2000/svg" viewBox="0 0 272.63 340.35"><defs><style>.cls-1{fill:#424852;}</style></defs><title>Asset 2</title><g id="Layer_2" data-name="Layer 2"><g id="Layer_1-2" data-name="Layer 1"><path class="cls-1" d="M250.63,0H22A22,22,0,0,0,0,22V318.35a22,22,0,0,0,22,22H250.63a22,22,0,0,0,22-22V22A22,22,0,0,0,250.63,0Zm0,322.43H22a4.09,4.09,0,0,1-4.08-4.08V22A4.08,4.08,0,0,1,22,17.92H250.63A4.08,4.08,0,0,1,254.7,22V318.35A4.08,4.08,0,0,1,250.63,322.43Z"/><path class="cls-1" d="M243.28,64.18l-10.6-3.77,4.84-10.17a6.09,6.09,0,0,0-8.12-8.11L219.23,47l-3.77-10.6a6.09,6.09,0,0,0-11.47,0L200.22,47l-10.16-4.83a6.08,6.08,0,0,0-8.1,8.11l4.82,10.17-10.61,3.77a6.09,6.09,0,0,0,0,11.47l10.61,3.77L182,89.58a6.08,6.08,0,0,0,8.1,8.11l4.67-2.23v48.45l15-12.21,15,12.21V95.46l4.67,2.23a6.1,6.1,0,0,0,8.12-8.11l-4.84-10.16,10.6-3.77a6.09,6.09,0,0,0,0-11.47Z"/><path class="cls-1" d="M41.05,79.07H140.2a10.63,10.63,0,0,0,0-21.25H41.05a10.63,10.63,0,0,0,0,21.25"/><path class="cls-1" d="M41.05,132.19H140.2a10.63,10.63,0,0,0,0-21.25H41.05a10.63,10.63,0,0,0,0,21.25"/><path class="cls-1" d="M41.05,185.3H188a10.63,10.63,0,1,0,0-21.25H41.05a10.63,10.63,0,0,0,0,21.25"/><path class="cls-1" d="M41.05,238.42H214.56a10.63,10.63,0,0,0,0-21.25H41.05a10.63,10.63,0,0,0,0,21.25"/></g></g></svg>