<svg xmlns="http://www.w3.org/2000/svg" viewBox="0 0 320.98 289.54"><defs><style>.cls-1{fill:#424852;}</style></defs><title>Asset 3</title><g id="Layer_2" data-name="Layer 2"><g id="Layer_1-2" data-name="Layer 1"><path class="cls-1" d="M224.68,97.06,214,94.13c-7.38-2-9.8-4.33-9.8-8.91,0-6,5.09-10.19,12.34-10.19,6.63,0,12.61,1.91,20.65,6.74L245.56,69a49.36,49.36,0,0,0-23.68-8.53v-9.3h-11v9.17c-16,1.91-26.62,12.48-26.62,27.13A25.48,25.48,0,0,0,188,101c3.18,5.35,8.67,8.79,17.44,11.21l9.81,2.68c7.91,2.16,11.6,5.73,11.6,11.46,0,7.9-5.35,12.1-15.54,12.1-8.93,0-16-2.8-24.32-7.13l-6.65,13.88A63.13,63.13,0,0,0,205.2,153V163.3h10.94V153c18.84-1.91,31-13.25,31-29.55C247.09,110.31,239.2,101,224.68,97.06Z"/><path class="cls-1" d="M213.73,0A107.31,107.31,0,0,0,111.1,76c-1.41-.07-2.8-.21-4.24-.21A106.86,106.86,0,1,0,208.93,214.26c1.6.07,3.17.25,4.8.25A107.26,107.26,0,0,0,213.73,0ZM164.65,240.46A81.72,81.72,0,1,1,106.78,101c-.12,2.09-.31,4.16-.31,6.28a107.65,107.65,0,0,0,1.8,19.39H104v9.17C88,137.72,77.43,148.29,77.43,163a25.56,25.56,0,0,0,3.7,13.49c3.17,5.35,8.65,8.79,17.44,11.21l9.81,2.67c7.9,2.17,11.6,5.74,11.6,11.47,0,7.9-5.36,12.1-15.55,12.1-8.92,0-16-2.8-24.33-7.13l-6.63,13.88a63,63,0,0,0,24.86,7.77v10.32h11V228.41c18.85-1.91,30.95-13.25,30.95-29.55,0-13.12-7.89-22.42-22.41-26.37l-10.71-2.92c-7.38-2-9.79-4.34-9.79-8.93,0-6,5.09-10.18,12.33-10.18a30.54,30.54,0,0,1,6.25.7,107.53,107.53,0,0,0,67.82,59A81.88,81.88,0,0,1,164.65,240.46Zm107.06-75.21a82,82,0,1,1,24-58A81.66,81.66,0,0,1,271.71,165.25Z"/></g></g></svg>