<svg xmlns="http://www.w3.org/2000/svg" viewBox="0 0 253.46 307.06"><defs><style>.cls-1{fill:#424852;}</style></defs><title>Asset 1</title><g id="Layer_2" data-name="Layer 2"><g id="Layer_1-2" data-name="Layer 1"><path class="cls-1" d="M149.59,26.62l-48.43,28L90.9,36.82a17.71,17.71,0,0,1,6.48-24.19L115.14,2.38a17.72,17.72,0,0,1,24.21,6.48Z"/><polygon class="cls-1" points="235.34 175.14 186.91 203.1 108.26 66.88 124.4 57.55 153.83 108.53 169.98 99.2 140.55 48.24 156.7 38.91 235.34 175.14"/><polygon class="cls-1" points="253.46 262.46 191.86 211.68 240.29 183.72 253.46 262.46"/><path class="cls-1" d="M179.46,246H97.79A9.82,9.82,0,0,0,88,255.81c0,.17,0,.34,0,.51a10.3,10.3,0,0,0,3.9,8.32l24,18.88H11.77a11.77,11.77,0,1,0,0,23.54H145a11.73,11.73,0,0,0,8.74-19.6,10.63,10.63,0,0,0-1.83-1.91l-25.31-19.92h52.89a9.82,9.82,0,0,0,0-19.64Z"/></g></g></svg>